HIERARCHY
ROOT Pelvis
{
	OFFSET 0.000000 0.000000 0.000000
	CHANNELS 6 Xposition Yposition Zposition Xrotation Yrotation Zrotation
	JOINT LeftUpLeg_virtual
	{
		OFFSET 0.000000 0.000000 0.000000
		CHANNELS 3 Xrotation Yrotation Zrotation
		JOINT LeftUpLeg
		{
			OFFSET 8.479700 -4.795502 -0.379100
			CHANNELS 3 Xrotation Yrotation Zrotation
			JOINT LeftLeg
			{
				OFFSET 0.024144 -32.555107 0.112900
				CHANNELS 3 Xrotation Yrotation Zrotation
				JOINT LeftFoot
				{
					OFFSET -0.024144 -32.638630 -3.012600
					CHANNELS 3 Xrotation Yrotation Zrotation
					JOINT LeftToeBase
					{
						OFFSET 0.970200 -13.225400 11.864200
						CHANNELS 3 Xrotation Yrotation Zrotation
						End Site
						{
							OFFSET 0 0 0
						}
					}
				}
			}
		}
	}
	JOINT RightUpLeg_virtual
	{
		OFFSET 0.000000 0.000000 0.000000
		CHANNELS 3 Xrotation Yrotation Zrotation
		JOINT RightUpLeg
		{
			OFFSET -8.479700 -4.795502 -0.379100
			CHANNELS 3 Xrotation Yrotation Zrotation
			JOINT RightLeg
			{
				OFFSET -0.023144 -32.555092 0.112900
				CHANNELS 3 Xrotation Yrotation Zrotation
				JOINT RightFoot
				{
					OFFSET 0.023144 -32.638641 -3.012700
					CHANNELS 3 Xrotation Yrotation Zrotation
					JOINT RightToeBase
					{
						OFFSET -0.970200 -13.225400 11.864200
						CHANNELS 3 Xrotation Yrotation Zrotation
						End Site
						{
							OFFSET 0 0 0
						}
					}
				}
			}
		}
	}
	JOINT Hips_virtual
	{
		OFFSET 0.000000 0.000000 0.000000
		CHANNELS 3 Xrotation Yrotation Zrotation
		JOINT Hips
		{
			OFFSET -0.000000 -0.000000 -0.000000
			CHANNELS 3 Xrotation Yrotation Zrotation
			JOINT Spine
			{
				OFFSET 0.000000 7.722000 1.166200
				CHANNELS 3 Xrotation Yrotation Zrotation
				JOINT Spine1
				{
					OFFSET 0.000000 12.024101 0.248800
					CHANNELS 3 Xrotation Yrotation Zrotation
					JOINT Spine2
					{
						OFFSET 0.000000 11.502998 -0.491200
						CHANNELS 3 Xrotation Yrotation Zrotation
						JOINT Neck_virtual
						{
							OFFSET 0.000000 0.000000 0.000000
							CHANNELS 3 Xrotation Yrotation Zrotation
							JOINT Neck
							{
								OFFSET 0.000000 18.430702 -3.123100
								CHANNELS 3 Xrotation Yrotation Zrotation
								JOINT Head
								{
									OFFSET 0.000000 9.051102 1.034000
									CHANNELS 3 Xrotation Yrotation Zrotation
									End Site
									{
										OFFSET 0 0 0
									}
								}
							}
						}
						JOINT LeftShoulder_virtual
						{
							OFFSET 0.000000 0.000000 0.000000
							CHANNELS 3 Xrotation Yrotation Zrotation
							JOINT LeftShoulder
							{
								OFFSET 6.197800 13.665199 -4.064700
								CHANNELS 3 Xrotation Yrotation Zrotation
								JOINT LeftArm
								{
									OFFSET 7.778100 -0.187103 -1.709300
									CHANNELS 3 Xrotation Yrotation Zrotation
									JOINT LeftForeArm
									{
										OFFSET 22.049376 0.000000 0.000000
										CHANNELS 3 Xrotation Yrotation Zrotation
										JOINT LeftHand
										{
											OFFSET 23.009392 0.000000 0.000000
											CHANNELS 3 Xrotation Yrotation Zrotation
											End Site
											{
												OFFSET 0 0 0
											}
										}
									}
								}
							}
						}
						JOINT RightShoulder_virtual
						{
							OFFSET 0.000000 0.000000 0.000000
							CHANNELS 3 Xrotation Yrotation Zrotation
							JOINT RightShoulder
							{
								OFFSET -6.197800 13.665199 -4.064700
								CHANNELS 3 Xrotation Yrotation Zrotation
								JOINT RightArm
								{
									OFFSET -7.778100 -0.187103 -1.709300
									CHANNELS 3 Xrotation Yrotation Zrotation
									JOINT RightForeArm
									{
										OFFSET -22.049376 0.000000 0.000000
										CHANNELS 3 Xrotation Yrotation Zrotation
										JOINT RightHand
										{
											OFFSET -23.009392 0.000000 0.000000
											CHANNELS 3 Xrotation Yrotation Zrotation
											End Site
											{
												OFFSET 0 0 0
											}
										}
									}
								}
							}
						}
					}
				}
			}
		}
	}
}
MOTION
Frames: 10
Frame Time: 0.03333333
-0.250039 70.702034 0.244972 0.000000 0.000000 0.000000 11.695791 -49.489553 11.290269 -64.578503 28.127839 42.220941 45.036126 -20.081159 3.175746 2.545453 0.952098 -10.119462 0.000000 0.000000 0.000000 11.695791 -49.489553 11.290269 -33.975478 -0.459102 -24.258160 53.259585 1.997535 -6.750452 -26.565350 -2.745300 24.293571 0.000000 0.000000 0.000000 11.695791 -49.489553 11.290269 0.000000 0.000000 0.000000 10.973393 2.836622 -2.050337 6.100716 5.566505 -4.284672 0.000000 0.000000 0.000000 -5.786924 6.328159 -3.046186 2.318706 9.363319 -0.265342 0.000000 0.000000 0.000000 -5.786924 6.328159 -3.046186 -1.875346 -16.181702 -2.870491 -10.644665 2.164709 -45.510592 -22.862381 -25.786274 -15.871727 0.000000 0.000000 0.000000 -5.786924 6.328159 -3.046186 -5.074600 24.343692 1.482627 6.642398 -34.733711 57.610501 -21.031981 44.833853 19.961655 0.000000 0.000000 0.000000 
-0.238014 70.593124 0.466507 0.000000 0.000000 0.000000 17.359045 -51.221880 16.031084 -66.355786 27.222098 42.061548 45.747764 -18.920080 3.347284 1.561621 3.064729 -11.273653 0.000000 0.000000 0.000000 17.359045 -51.221880 16.031084 -37.968530 1.300174 -23.667871 53.264424 2.289413 -6.749394 -26.043202 -1.947625 24.371447 0.000000 0.000000 0.000000 17.359045 -51.221880 16.031084 0.000000 -0.000001 0.000000 6.600078 3.218675 -1.425046 4.905270 6.087647 -4.052457 0.000000 0.000000 0.000000 -6.993463 6.770104 -2.740918 -0.991441 3.774196 0.062746 0.000000 0.000000 0.000000 -6.993463 6.770104 -2.740918 -2.019447 -12.678709 -1.080113 -6.222593 2.408195 -48.336060 -21.610054 -26.352752 -14.989771 0.000000 0.000000 0.000000 -6.993463 6.770104 -2.740918 -5.292527 23.824661 2.533290 6.218712 -35.596111 55.188099 -22.397630 43.628223 20.943865 0.000000 0.000000 0.000000 
-0.436113 70.425514 0.945076 0.000000 0.000000 0.000000 23.070620 -51.192903 21.266979 -68.339553 26.803343 41.044075 46.519619 -18.218160 3.452238 0.545045 4.700961 -11.969341 0.000000 0.000000 0.000000 23.070620 -51.192903 21.266979 -41.243769 3.120233 -23.708102 53.281220 2.048445 -6.794888 -26.000773 -2.103645 24.866485 0.000000 0.000000 0.000000 23.070620 -51.192903 21.266979 0.000000 -0.000001 0.000001 1.926962 3.205969 -0.636499 3.783559 5.915588 -3.917738 0.000000 0.000000 0.000000 -8.078009 6.563238 -2.613888 -5.256406 -4.314908 1.768455 0.000000 0.000000 0.000000 -8.078009 6.563238 -2.613888 -2.338699 -9.267091 0.477314 0.012346 1.464313 -49.562236 -21.267389 -30.655713 -14.789846 0.000000 0.000000 0.000000 -8.078009 6.563238 -2.613888 -5.306077 22.788498 3.827939 7.662541 -36.585693 53.035541 -27.334610 45.566524 26.031903 0.000000 0.000000 0.000000 
-0.840748 70.272560 1.534971 0.000000 0.000000 0.000000 27.397875 -49.768556 25.584823 -70.003265 26.974072 39.459946 46.941667 -18.024377 3.467603 -0.275142 5.692844 -12.266020 0.000000 0.000000 0.000000 27.397875 -49.768556 25.584823 -43.333322 4.716527 -24.368237 53.324052 1.454600 -6.841653 -26.400426 -2.989204 25.521603 0.000000 0.000000 0.000000 27.397875 -49.768556 25.584823 0.000000 -0.000001 0.000000 -1.831145 2.756603 0.025489 3.102663 5.088902 -3.978473 0.000000 0.000000 0.000000 -8.666747 5.787709 -2.761520 -8.158459 -13.179525 6.213845 0.000000 0.000000 0.000000 -8.666747 5.787709 -2.761520 -2.777917 -7.561324 3.202645 6.336171 0.679707 -51.194283 -20.920412 -35.100906 -14.588096 0.000000 0.000000 0.000000 -8.666747 5.787709 -2.761520 -5.506172 20.977709 6.822258 8.426884 -38.300812 48.596379 -35.680082 50.798941 35.841192 0.000000 0.000000 0.000000 
-1.387228 70.183899 2.185055 0.000000 0.000000 0.000000 30.327184 -47.720466 28.642443 -71.220568 27.418481 37.735443 47.016454 -18.161531 3.423218 -0.935332 6.232381 -12.354038 0.000000 0.000000 0.000000 30.327184 -47.720466 28.642443 -44.373526 5.855159 -25.298737 53.175864 0.766982 -6.842356 -26.978315 -4.209450 26.130564 0.000000 0.000000 0.000000 30.327184 -47.720466 28.642443 0.000000 0.000000 0.000000 -3.506490 1.829276 0.603242 3.307905 3.506666 -3.997013 0.000000 0.000000 0.000000 -8.328921 4.248532 -2.971354 -11.046993 -19.653089 9.678654 0.000000 0.000000 0.000000 -8.328921 4.248532 -2.971354 -3.066420 -7.807667 4.730874 10.311694 1.423237 -52.599447 -19.446787 -36.074173 -13.613609 0.000000 0.000000 0.000000 -8.328921 4.248532 -2.971354 -5.187630 18.961577 9.196354 7.063279 -38.893536 43.103920 -47.779366 56.035821 50.040541 0.000000 0.000000 0.000000 
-2.004564 70.172623 2.815166 0.000000 0.000000 0.000000 32.618682 -45.576626 31.184946 -71.951876 28.038603 35.892890 46.631778 -18.343096 3.341932 -1.408701 6.677225 -12.500181 0.000000 0.000000 0.000000 32.618682 -45.576626 31.184946 -45.005530 6.759381 -26.347103 52.843176 0.174986 -6.802509 -27.530145 -5.450786 26.582017 0.000000 0.000000 0.000000 32.618682 -45.576626 31.184946 -0.000001 -0.000004 -0.000000 -2.524874 0.504108 1.095128 4.410012 1.210504 -3.819896 0.000000 0.000000 0.000000 -7.099654 1.952050 -3.048247 -14.462342 -22.730752 10.849850 0.000000 0.000000 0.000000 -7.099654 1.952050 -3.048247 -2.432253 -9.071554 3.582091 8.625661 7.233662 -52.983523 -16.855519 -33.585116 -12.183767 0.000000 0.000000 0.000000 -7.099654 1.952050 -3.048247 -4.436295 16.815613 10.916736 2.867419 -37.919325 36.724718 -62.960376 60.678321 67.613388 0.000000 0.000000 0.000000 
-2.981056 70.196915 3.441109 0.000000 0.000000 0.000000 33.805734 -43.586156 32.635084 -71.915813 28.604590 34.424481 45.987349 -18.780884 3.245560 -1.859085 6.889302 -12.850995 0.000000 0.000000 0.000000 33.805734 -43.586156 32.635084 -44.737145 6.941675 -27.234278 52.551848 -0.331432 -6.776344 -28.495607 -6.650098 26.726515 0.000000 0.000000 0.000000 33.805734 -43.586156 32.635084 0.000002 -0.000002 0.000000 0.434247 -0.969989 1.569068 6.128182 -1.531148 -3.628610 0.000000 0.000000 0.000000 -5.294943 -0.811232 -3.075679 -16.540978 -22.287175 11.383613 0.000000 0.000000 0.000000 -5.294943 -0.811232 -3.075679 -0.591741 -9.121292 1.921984 1.513766 16.251831 -51.344598 -13.857623 -28.954729 -10.616540 0.000000 0.000000 0.000000 -5.294943 -0.811232 -3.075679 -3.519767 14.337038 12.950348 -3.555347 -34.934908 30.547225 -76.330144 63.075124 82.817369 0.000000 0.000000 0.000000 
-4.346174 70.177376 4.038685 0.000000 0.000000 0.000000 34.303495 -42.197486 33.429845 -71.150791 28.948039 33.606126 45.384005 -19.393151 3.158800 -2.485639 7.161162 -13.567098 0.000000 0.000000 0.000000 34.303495 -42.197486 33.429845 -43.935226 6.519198 -27.808538 52.530684 -0.639963 -6.802532 -29.969204 -7.502211 26.536641 0.000000 0.000000 0.000000 34.303495 -42.197486 33.429845 0.000000 -0.000003 0.000000 4.473193 -2.544296 2.097164 8.132127 -4.743747 -3.173957 0.000000 0.000000 0.000000 -3.269352 -4.072405 -2.787217 -16.676966 -19.204153 11.995082 0.000000 0.000000 0.000000 -3.269352 -4.072405 -2.787217 2.129476 -12.995592 0.097866 -9.083912 30.663991 -45.714087 -10.864690 -23.322046 -9.076667 0.000000 0.000000 0.000000 -3.269352 -4.072405 -2.787217 -2.526041 12.469832 14.923436 -9.852908 -29.672708 27.190874 -85.195347 64.696016 92.231972 0.000000 0.000000 0.000000 
-5.857824 70.128998 4.535251 0.000000 0.000000 0.000000 35.091524 -41.653806 33.993162 -70.413882 28.684250 33.780859 44.960157 -19.960886 3.111008 -3.247741 7.753426 -14.629376 0.000000 0.000000 0.000000 35.091524 -41.653806 33.993162 -43.353137 5.730941 -27.554460 52.487487 -0.739327 -6.848706 -31.477726 -7.780305 26.067436 0.000000 0.000000 0.000000 35.091524 -41.653806 33.993162 -0.000001 -0.000001 -0.000000 8.775686 -4.048729 2.713984 10.629017 -7.985797 -2.385280 0.000000 0.000000 0.000000 -0.790407 -7.362261 -2.055574 -16.206364 -14.060725 9.226307 0.000000 0.000000 0.000000 -0.790407 -7.362261 -2.055574 4.756265 -15.894793 -1.244008 -16.882204 38.629016 -37.688840 -8.098495 -17.855684 -7.600329 0.000000 0.000000 0.000000 -0.790407 -7.362261 -2.055574 -1.565896 10.918273 17.212292 -15.854097 -21.529777 26.362339 -86.261615 67.025432 92.302801 0.000000 0.000000 0.000000 
-7.320616 70.066429 4.935075 0.000000 0.000000 0.000000 35.763243 -41.799156 34.102592 -69.693392 28.135059 34.750295 44.731189 -20.546952 3.099980 -4.042263 8.410277 -15.733324 0.000000 0.000000 0.000000 35.763243 -41.799156 34.102592 -42.668287 4.701381 -26.764897 52.351235 -0.706136 -6.881769 -32.856932 -7.636375 25.493070 0.000000 0.000000 0.000000 35.763243 -41.799156 34.102592 -0.000001 0.000002 0.000000 12.337236 -5.262717 3.222116 13.263758 -10.679815 -1.551968 0.000000 0.000000 0.000000 1.864441 -10.001748 -1.191196 -11.649562 -10.370211 8.343342 0.000000 0.000000 0.000000 1.864441 -10.001748 -1.191196 6.901620 -17.978349 -0.989752 -26.401265 42.294191 -29.214737 -5.633692 -13.745914 -6.176988 0.000000 0.000000 0.000000 1.864441 -10.001748 -1.191196 -0.780025 10.569014 19.159440 -20.134464 -12.786112 27.654340 -78.067416 69.081080 81.620740 0.000000 0.000000 0.000000 
